<svg xmlns="http://www.w3.org/2000/svg" xmlns:xlink="http://www.w3.org/1999/xlink" width="500" zoomAndPan="magnify" viewBox="0 0 375 187.499995" height="250" preserveAspectRatio="xMidYMid meet" version="1.0"><defs><g/><clipPath id="56b6259ccb"><path d="M 2.308594 33.371094 L 37 33.371094 L 37 131 L 2.308594 131 Z M 2.308594 33.371094 " clip-rule="nonzero"/></clipPath><clipPath id="a9e65a6851"><path d="M 41 52 L 77 52 L 77 149.3125 L 41 149.3125 Z M 41 52 " clip-rule="nonzero"/></clipPath><clipPath id="bd0a118a81"><path d="M 88 37 L 94.3125 37 L 94.3125 44 L 88 44 Z M 88 37 " clip-rule="nonzero"/></clipPath></defs><g clip-path="url(#56b6259ccb)"><path fill="#000000" d="M 2.335938 87.832031 L 2.335938 75.742188 C 4.789062 75.609375 6.636719 75.238281 7.878906 74.632812 C 9.121094 74.027344 10.195312 73.015625 11.101562 71.585938 C 12.007812 70.160156 12.628906 68.371094 12.964844 66.21875 C 13.234375 64.609375 13.371094 61.804688 13.371094 57.808594 C 13.371094 51.292969 13.671875 46.75 14.277344 44.179688 C 14.882812 41.613281 15.972656 39.546875 17.550781 37.984375 C 19.128906 36.421875 21.429688 35.1875 24.453125 34.28125 C 26.5 33.675781 29.726562 33.375 34.125 33.375 L 36.792969 33.375 L 36.792969 45.414062 C 33.066406 45.414062 30.675781 45.625 29.617188 46.042969 C 28.558594 46.464844 27.777344 47.101562 27.273438 47.957031 C 26.769531 48.816406 26.519531 50.285156 26.519531 52.367188 C 26.519531 54.484375 26.367188 58.496094 26.0625 64.40625 C 25.894531 67.730469 25.460938 70.425781 24.753906 72.492188 C 24.050781 74.558594 23.148438 76.261719 22.058594 77.605469 C 20.96875 78.949219 19.296875 80.34375 17.046875 81.789062 C 19.027344 82.929688 20.648438 84.265625 21.910156 85.792969 C 23.167969 87.320312 24.132812 89.175781 24.804688 91.359375 C 25.476562 93.542969 25.914062 96.464844 26.113281 100.125 C 26.347656 105.699219 26.46875 109.257812 26.46875 110.804688 C 26.46875 113.019531 26.734375 114.566406 27.273438 115.4375 C 27.8125 116.3125 28.625 116.976562 29.71875 117.429688 C 30.808594 117.882812 33.167969 118.109375 36.792969 118.109375 L 36.792969 130.199219 L 34.125 130.199219 C 29.589844 130.199219 26.113281 129.835938 23.695312 129.117188 C 21.277344 128.394531 19.238281 127.195312 17.574219 125.515625 C 15.914062 123.835938 14.796875 121.761719 14.226562 119.292969 C 13.65625 116.824219 13.371094 112.9375 13.371094 107.632812 C 13.371094 101.453125 13.101562 97.4375 12.5625 95.589844 C 11.824219 92.902344 10.707031 90.980469 9.214844 89.820312 C 7.71875 88.664062 5.425781 88 2.335938 87.832031 " fill-opacity="1" fill-rule="nonzero"/></g><path fill="#4c66d9" d="M 78.765625 58.457031 L 70.878906 58.457031 L 70.878906 50.570312 L 78.765625 50.570312 L 78.765625 58.457031 " fill-opacity="1" fill-rule="nonzero"/><path fill="#4c66d9" d="M 76.902344 74.226562 L 70.878906 74.226562 L 70.878906 68.203125 L 76.902344 68.203125 L 76.902344 74.226562 " fill-opacity="1" fill-rule="nonzero"/><g clip-path="url(#a9e65a6851)"><path fill="#4c66d9" d="M 53.964844 64.480469 L 53.964844 58.457031 L 59.988281 58.457031 L 59.988281 64.480469 Z M 69.289062 92.648438 C 67.777344 91.488281 66.652344 89.566406 65.914062 86.878906 C 65.507812 85.363281 65.265625 82.457031 65.1875 78.167969 L 59.988281 78.167969 L 59.988281 70.285156 L 65.070312 70.285156 C 64.945312 67.242188 64.679688 64.875 64.277344 63.175781 C 63.6875 60.707031 62.570312 58.625 60.925781 56.929688 C 59.28125 55.234375 57.25 54.03125 54.832031 53.328125 C 52.410156 52.621094 48.9375 52.269531 44.402344 52.269531 L 41.730469 52.269531 L 41.730469 64.308594 C 45.527344 64.308594 47.96875 64.535156 49.0625 64.988281 C 50.152344 65.441406 50.910156 66.089844 51.328125 66.929688 C 51.75 67.769531 51.976562 69.449219 52.007812 71.964844 C 52.175781 79.960938 52.445312 85.132812 52.816406 87.484375 C 53.386719 90.910156 54.460938 93.730469 56.039062 95.945312 C 57.179688 97.492188 58.992188 99.070312 61.480469 100.683594 C 59.566406 101.789062 57.996094 103.074219 56.769531 104.535156 C 55.542969 105.996094 54.5625 107.777344 53.824219 109.875 C 53.085938 111.976562 52.628906 114.769531 52.460938 118.261719 C 52.195312 124.039062 52.050781 127.953125 52.035156 130 C 52.015625 132.050781 51.75 133.503906 51.226562 134.359375 C 50.707031 135.214844 49.894531 135.871094 48.785156 136.324219 C 47.675781 136.777344 45.324219 137.003906 41.730469 137.003906 L 41.730469 149.09375 L 44.402344 149.09375 C 48.800781 149.09375 52.027344 148.792969 54.074219 148.1875 C 57.128906 147.28125 59.445312 146.046875 61.027344 144.484375 C 62.605469 142.921875 63.6875 140.847656 64.277344 138.261719 C 64.863281 135.675781 65.15625 131.125 65.15625 124.609375 C 65.15625 120.648438 65.292969 117.859375 65.558594 116.25 C 65.929688 114.097656 66.558594 112.3125 67.449219 110.882812 C 68.339844 109.457031 69.40625 108.441406 70.648438 107.835938 C 71.890625 107.230469 73.738281 106.863281 76.191406 106.726562 L 76.191406 94.636719 C 73.097656 94.46875 70.800781 93.804688 69.289062 92.648438 " fill-opacity="1" fill-rule="nonzero"/></g><g clip-path="url(#bd0a118a81)"><path fill="#4c66d9" d="M 94.136719 43.144531 L 88.113281 43.144531 L 88.113281 37.117188 L 94.136719 37.117188 L 94.136719 43.144531 " fill-opacity="1" fill-rule="nonzero"/></g><path fill="#4c66d9" d="M 63.929688 50.570312 L 52.6875 50.570312 L 52.6875 39.324219 L 63.929688 39.324219 L 63.929688 50.570312 " fill-opacity="1" fill-rule="nonzero"/><g fill="#000000" fill-opacity="1"><g transform="translate(100.79571, 73.901681)"><g><path d="M 1.5625 -16.625 C 1.5625 -19.894531 2.269531 -22.8125 3.6875 -25.375 C 5.101562 -27.945312 7.078125 -29.945312 9.609375 -31.375 C 12.148438 -32.8125 15.023438 -33.53125 18.234375 -33.53125 C 22.171875 -33.53125 25.539062 -32.488281 28.34375 -30.40625 C 31.144531 -28.332031 33.019531 -25.503906 33.96875 -21.921875 L 25.078125 -21.921875 C 24.421875 -23.304688 23.484375 -24.359375 22.265625 -25.078125 C 21.054688 -25.804688 19.679688 -26.171875 18.140625 -26.171875 C 15.648438 -26.171875 13.632812 -25.300781 12.09375 -23.5625 C 10.550781 -21.832031 9.78125 -19.519531 9.78125 -16.625 C 9.78125 -13.726562 10.550781 -11.410156 12.09375 -9.671875 C 13.632812 -7.941406 15.648438 -7.078125 18.140625 -7.078125 C 19.679688 -7.078125 21.054688 -7.441406 22.265625 -8.171875 C 23.484375 -8.898438 24.421875 -9.957031 25.078125 -11.34375 L 33.96875 -11.34375 C 33.019531 -7.75 31.144531 -4.921875 28.34375 -2.859375 C 25.539062 -0.796875 22.171875 0.234375 18.234375 0.234375 C 15.023438 0.234375 12.148438 -0.476562 9.609375 -1.90625 C 7.078125 -3.34375 5.101562 -5.335938 3.6875 -7.890625 C 2.269531 -10.441406 1.5625 -13.351562 1.5625 -16.625 Z M 1.5625 -16.625 "/></g></g></g><g fill="#000000" fill-opacity="1"><g transform="translate(139.339918, 73.901681)"><g><path d="M 27.78125 -13.609375 C 27.78125 -12.847656 27.726562 -12.054688 27.625 -11.234375 L 9.359375 -11.234375 C 9.484375 -9.597656 10.007812 -8.347656 10.9375 -7.484375 C 11.863281 -6.617188 13.003906 -6.1875 14.359375 -6.1875 C 16.367188 -6.1875 17.769531 -7.035156 18.5625 -8.734375 L 27.15625 -8.734375 C 26.71875 -7.003906 25.921875 -5.445312 24.765625 -4.0625 C 23.617188 -2.675781 22.179688 -1.585938 20.453125 -0.796875 C 18.722656 -0.015625 16.785156 0.375 14.640625 0.375 C 12.054688 0.375 9.753906 -0.171875 7.734375 -1.265625 C 5.722656 -2.367188 4.148438 -3.941406 3.015625 -5.984375 C 1.890625 -8.035156 1.328125 -10.429688 1.328125 -13.171875 C 1.328125 -15.910156 1.882812 -18.300781 3 -20.34375 C 4.113281 -22.394531 5.675781 -23.972656 7.6875 -25.078125 C 9.707031 -26.179688 12.023438 -26.734375 14.640625 -26.734375 C 17.191406 -26.734375 19.457031 -26.195312 21.4375 -25.125 C 23.425781 -24.050781 24.976562 -22.523438 26.09375 -20.546875 C 27.21875 -18.566406 27.78125 -16.253906 27.78125 -13.609375 Z M 19.5 -15.734375 C 19.5 -17.117188 19.023438 -18.21875 18.078125 -19.03125 C 17.140625 -19.851562 15.960938 -20.265625 14.546875 -20.265625 C 13.191406 -20.265625 12.050781 -19.867188 11.125 -19.078125 C 10.195312 -18.296875 9.625 -17.179688 9.40625 -15.734375 Z M 19.5 -15.734375 "/></g></g></g><g fill="#000000" fill-opacity="1"><g transform="translate(170.987772, 73.901681)"><g><path d="M 11 -22.625 C 11.757812 -23.851562 12.847656 -24.84375 14.265625 -25.59375 C 15.679688 -26.351562 17.300781 -26.734375 19.125 -26.734375 C 21.300781 -26.734375 23.269531 -26.179688 25.03125 -25.078125 C 26.789062 -23.972656 28.179688 -22.394531 29.203125 -20.34375 C 30.234375 -18.300781 30.75 -15.925781 30.75 -13.21875 C 30.75 -10.507812 30.234375 -8.125 29.203125 -6.0625 C 28.179688 -4 26.789062 -2.410156 25.03125 -1.296875 C 23.269531 -0.179688 21.300781 0.375 19.125 0.375 C 17.269531 0.375 15.648438 0.00390625 14.265625 -0.734375 C 12.878906 -1.472656 11.789062 -2.457031 11 -3.6875 L 11 0 L 2.921875 0 L 2.921875 -34.953125 L 11 -34.953125 Z M 22.53125 -13.21875 C 22.53125 -15.238281 21.96875 -16.820312 20.84375 -17.96875 C 19.726562 -19.125 18.351562 -19.703125 16.71875 -19.703125 C 15.113281 -19.703125 13.75 -19.117188 12.625 -17.953125 C 11.507812 -16.785156 10.953125 -15.191406 10.953125 -13.171875 C 10.953125 -11.160156 11.507812 -9.570312 12.625 -8.40625 C 13.75 -7.238281 15.113281 -6.65625 16.71875 -6.65625 C 18.320312 -6.65625 19.691406 -7.242188 20.828125 -8.421875 C 21.960938 -9.609375 22.53125 -11.207031 22.53125 -13.21875 Z M 22.53125 -13.21875 "/></g></g></g><g fill="#000000" fill-opacity="1"><g transform="translate(205.611445, 73.901681)"><g><path d="M 28.953125 -26.359375 L 28.953125 0 L 20.875 0 L 20.875 -3.59375 C 20.0625 -2.425781 18.953125 -1.488281 17.546875 -0.78125 C 16.148438 -0.0703125 14.597656 0.28125 12.890625 0.28125 C 10.878906 0.28125 9.101562 -0.164062 7.5625 -1.0625 C 6.019531 -1.957031 4.820312 -3.253906 3.96875 -4.953125 C 3.113281 -6.660156 2.6875 -8.660156 2.6875 -10.953125 L 2.6875 -26.359375 L 10.71875 -26.359375 L 10.71875 -12.046875 C 10.71875 -10.285156 11.175781 -8.914062 12.09375 -7.9375 C 13.007812 -6.957031 14.238281 -6.46875 15.78125 -6.46875 C 17.351562 -6.46875 18.59375 -6.957031 19.5 -7.9375 C 20.414062 -8.914062 20.875 -10.285156 20.875 -12.046875 L 20.875 -26.359375 Z M 28.953125 -26.359375 "/></g></g></g><g fill="#000000" fill-opacity="1"><g transform="translate(252.563777, 73.901681)"><g><path d="M 48.5625 -33.15625 L 39.90625 0 L 30.140625 0 L 24.84375 -21.828125 L 19.359375 0 L 9.59375 0 L 1.1875 -33.15625 L 9.828125 -33.15625 L 14.59375 -9.015625 L 20.5 -33.15625 L 29.375 -33.15625 L 35.046875 -9.015625 L 39.859375 -33.15625 Z M 48.5625 -33.15625 "/></g></g></g><g fill="#000000" fill-opacity="1"><g transform="translate(304.806199, 73.901681)"><g><path d="M 27.78125 -13.609375 C 27.78125 -12.847656 27.726562 -12.054688 27.625 -11.234375 L 9.359375 -11.234375 C 9.484375 -9.597656 10.007812 -8.347656 10.9375 -7.484375 C 11.863281 -6.617188 13.003906 -6.1875 14.359375 -6.1875 C 16.367188 -6.1875 17.769531 -7.035156 18.5625 -8.734375 L 27.15625 -8.734375 C 26.71875 -7.003906 25.921875 -5.445312 24.765625 -4.0625 C 23.617188 -2.675781 22.179688 -1.585938 20.453125 -0.796875 C 18.722656 -0.015625 16.785156 0.375 14.640625 0.375 C 12.054688 0.375 9.753906 -0.171875 7.734375 -1.265625 C 5.722656 -2.367188 4.148438 -3.941406 3.015625 -5.984375 C 1.890625 -8.035156 1.328125 -10.429688 1.328125 -13.171875 C 1.328125 -15.910156 1.882812 -18.300781 3 -20.34375 C 4.113281 -22.394531 5.675781 -23.972656 7.6875 -25.078125 C 9.707031 -26.179688 12.023438 -26.734375 14.640625 -26.734375 C 17.191406 -26.734375 19.457031 -26.195312 21.4375 -25.125 C 23.425781 -24.050781 24.976562 -22.523438 26.09375 -20.546875 C 27.21875 -18.566406 27.78125 -16.253906 27.78125 -13.609375 Z M 19.5 -15.734375 C 19.5 -17.117188 19.023438 -18.21875 18.078125 -19.03125 C 17.140625 -19.851562 15.960938 -20.265625 14.546875 -20.265625 C 13.191406 -20.265625 12.050781 -19.867188 11.125 -19.078125 C 10.195312 -18.296875 9.625 -17.179688 9.40625 -15.734375 Z M 19.5 -15.734375 "/></g></g></g><g fill="#000000" fill-opacity="1"><g transform="translate(336.454061, 73.901681)"><g><path d="M 11 -22.625 C 11.757812 -23.851562 12.847656 -24.84375 14.265625 -25.59375 C 15.679688 -26.351562 17.300781 -26.734375 19.125 -26.734375 C 21.300781 -26.734375 23.269531 -26.179688 25.03125 -25.078125 C 26.789062 -23.972656 28.179688 -22.394531 29.203125 -20.34375 C 30.234375 -18.300781 30.75 -15.925781 30.75 -13.21875 C 30.75 -10.507812 30.234375 -8.125 29.203125 -6.0625 C 28.179688 -4 26.789062 -2.410156 25.03125 -1.296875 C 23.269531 -0.179688 21.300781 0.375 19.125 0.375 C 17.269531 0.375 15.648438 0.00390625 14.265625 -0.734375 C 12.878906 -1.472656 11.789062 -2.457031 11 -3.6875 L 11 0 L 2.921875 0 L 2.921875 -34.953125 L 11 -34.953125 Z M 22.53125 -13.21875 C 22.53125 -15.238281 21.96875 -16.820312 20.84375 -17.96875 C 19.726562 -19.125 18.351562 -19.703125 16.71875 -19.703125 C 15.113281 -19.703125 13.75 -19.117188 12.625 -17.953125 C 11.507812 -16.785156 10.953125 -15.191406 10.953125 -13.171875 C 10.953125 -11.160156 11.507812 -9.570312 12.625 -8.40625 C 13.75 -7.238281 15.113281 -6.65625 16.71875 -6.65625 C 18.320312 -6.65625 19.691406 -7.242188 20.828125 -8.421875 C 21.960938 -9.609375 22.53125 -11.207031 22.53125 -13.21875 Z M 22.53125 -13.21875 "/></g></g></g><g fill="#000000" fill-opacity="1"><g transform="translate(117.141077, 129.997011)"><g><path d="M 14.078125 0.328125 C 11.898438 0.328125 9.953125 -0.0546875 8.234375 -0.828125 C 6.523438 -1.597656 5.179688 -2.664062 4.203125 -4.03125 C 3.222656 -5.40625 2.71875 -6.988281 2.6875 -8.78125 L 7.28125 -8.78125 C 7.4375 -7.238281 8.070312 -5.941406 9.1875 -4.890625 C 10.300781 -3.835938 11.929688 -3.3125 14.078125 -3.3125 C 16.117188 -3.3125 17.726562 -3.820312 18.90625 -4.84375 C 20.09375 -5.863281 20.6875 -7.175781 20.6875 -8.78125 C 20.6875 -10.039062 20.335938 -11.0625 19.640625 -11.84375 C 18.953125 -12.632812 18.085938 -13.234375 17.046875 -13.640625 C 16.015625 -14.054688 14.613281 -14.5 12.84375 -14.96875 C 10.675781 -15.539062 8.9375 -16.109375 7.625 -16.671875 C 6.320312 -17.242188 5.203125 -18.132812 4.265625 -19.34375 C 3.335938 -20.550781 2.875 -22.179688 2.875 -24.234375 C 2.875 -26.023438 3.332031 -27.613281 4.25 -29 C 5.164062 -30.382812 6.445312 -31.453125 8.09375 -32.203125 C 9.75 -32.960938 11.648438 -33.34375 13.796875 -33.34375 C 16.878906 -33.34375 19.40625 -32.570312 21.375 -31.03125 C 23.34375 -29.488281 24.453125 -27.441406 24.703125 -24.890625 L 19.984375 -24.890625 C 19.828125 -26.148438 19.164062 -27.257812 18 -28.21875 C 16.832031 -29.175781 15.289062 -29.65625 13.375 -29.65625 C 11.570312 -29.65625 10.101562 -29.191406 8.96875 -28.265625 C 7.84375 -27.335938 7.28125 -26.039062 7.28125 -24.375 C 7.28125 -23.175781 7.617188 -22.195312 8.296875 -21.4375 C 8.972656 -20.6875 9.804688 -20.113281 10.796875 -19.71875 C 11.785156 -19.320312 13.175781 -18.875 14.96875 -18.375 C 17.144531 -17.78125 18.894531 -17.191406 20.21875 -16.609375 C 21.539062 -16.023438 22.671875 -15.125 23.609375 -13.90625 C 24.554688 -12.695312 25.03125 -11.050781 25.03125 -8.96875 C 25.03125 -7.363281 24.601562 -5.851562 23.75 -4.4375 C 22.90625 -3.019531 21.648438 -1.867188 19.984375 -0.984375 C 18.316406 -0.109375 16.347656 0.328125 14.078125 0.328125 Z M 14.078125 0.328125 "/></g></g></g><g fill="#000000" fill-opacity="1"><g transform="translate(151.434507, 129.997011)"><g><path d="M 14.921875 0.421875 C 12.492188 0.421875 10.296875 -0.125 8.328125 -1.21875 C 6.367188 -2.320312 4.828125 -3.890625 3.703125 -5.921875 C 2.585938 -7.953125 2.03125 -10.304688 2.03125 -12.984375 C 2.03125 -15.628906 2.601562 -17.96875 3.75 -20 C 4.90625 -22.03125 6.472656 -23.585938 8.453125 -24.671875 C 10.441406 -25.765625 12.660156 -26.3125 15.109375 -26.3125 C 17.566406 -26.3125 19.785156 -25.765625 21.765625 -24.671875 C 23.753906 -23.585938 25.320312 -22.035156 26.46875 -20.015625 C 27.625 -18.003906 28.203125 -15.660156 28.203125 -12.984375 C 28.203125 -10.304688 27.609375 -7.953125 26.421875 -5.921875 C 25.242188 -3.890625 23.644531 -2.320312 21.625 -1.21875 C 19.613281 -0.125 17.378906 0.421875 14.921875 0.421875 Z M 14.921875 -3.359375 C 16.460938 -3.359375 17.910156 -3.71875 19.265625 -4.4375 C 20.617188 -5.164062 21.710938 -6.253906 22.546875 -7.703125 C 23.390625 -9.148438 23.8125 -10.910156 23.8125 -12.984375 C 23.8125 -15.066406 23.398438 -16.832031 22.578125 -18.28125 C 21.753906 -19.726562 20.679688 -20.804688 19.359375 -21.515625 C 18.035156 -22.222656 16.601562 -22.578125 15.0625 -22.578125 C 13.488281 -22.578125 12.046875 -22.222656 10.734375 -21.515625 C 9.429688 -20.804688 8.382812 -19.726562 7.59375 -18.28125 C 6.8125 -16.832031 6.421875 -15.066406 6.421875 -12.984375 C 6.421875 -10.878906 6.804688 -9.101562 7.578125 -7.65625 C 8.347656 -6.207031 9.378906 -5.128906 10.671875 -4.421875 C 11.960938 -3.710938 13.378906 -3.359375 14.921875 -3.359375 Z M 14.921875 -3.359375 "/></g></g></g><g fill="#000000" fill-opacity="1"><g transform="translate(188.231404, 129.997011)"><g><path d="M 7.9375 -34.953125 L 7.9375 0 L 3.640625 0 L 3.640625 -34.953125 Z M 7.9375 -34.953125 "/></g></g></g><g fill="#000000" fill-opacity="1"><g transform="translate(206.417619, 129.997011)"><g><path d="M 26.59375 -25.890625 L 26.59375 0 L 22.296875 0 L 22.296875 -3.828125 C 21.472656 -2.503906 20.328125 -1.472656 18.859375 -0.734375 C 17.398438 0.00390625 15.789062 0.375 14.03125 0.375 C 12.007812 0.375 10.195312 -0.0390625 8.59375 -0.875 C 6.988281 -1.707031 5.722656 -2.957031 4.796875 -4.625 C 3.867188 -6.289062 3.40625 -8.320312 3.40625 -10.71875 L 3.40625 -25.890625 L 7.65625 -25.890625 L 7.65625 -11.28125 C 7.65625 -8.738281 8.300781 -6.78125 9.59375 -5.40625 C 10.882812 -4.039062 12.644531 -3.359375 14.875 -3.359375 C 17.175781 -3.359375 18.988281 -4.066406 20.3125 -5.484375 C 21.632812 -6.898438 22.296875 -8.960938 22.296875 -11.671875 L 22.296875 -25.890625 Z M 26.59375 -25.890625 "/></g></g></g><g fill="#000000" fill-opacity="1"><g transform="translate(243.214516, 129.997011)"><g><path d="M 8.875 -22.34375 L 8.875 -7.078125 C 8.875 -5.828125 9.140625 -4.941406 9.671875 -4.421875 C 10.210938 -3.898438 11.144531 -3.640625 12.46875 -3.640625 L 15.640625 -3.640625 L 15.640625 0 L 11.765625 0 C 9.367188 0 7.570312 -0.550781 6.375 -1.65625 C 5.175781 -2.757812 4.578125 -4.566406 4.578125 -7.078125 L 4.578125 -22.34375 L 1.234375 -22.34375 L 1.234375 -25.890625 L 4.578125 -25.890625 L 4.578125 -32.40625 L 8.875 -32.40625 L 8.875 -25.890625 L 15.640625 -25.890625 L 15.640625 -22.34375 Z M 8.875 -22.34375 "/></g></g></g><g fill="#000000" fill-opacity="1"><g transform="translate(266.97449, 129.997011)"><g><path d="M 5.859375 -30.09375 C 5.035156 -30.09375 4.335938 -30.375 3.765625 -30.9375 C 3.203125 -31.5 2.921875 -32.191406 2.921875 -33.015625 C 2.921875 -33.835938 3.203125 -34.53125 3.765625 -35.09375 C 4.335938 -35.65625 5.035156 -35.9375 5.859375 -35.9375 C 6.640625 -35.9375 7.304688 -35.65625 7.859375 -35.09375 C 8.410156 -34.53125 8.6875 -33.835938 8.6875 -33.015625 C 8.6875 -32.191406 8.410156 -31.5 7.859375 -30.9375 C 7.304688 -30.375 6.640625 -30.09375 5.859375 -30.09375 Z M 7.9375 -25.890625 L 7.9375 0 L 3.640625 0 L 3.640625 -25.890625 Z M 7.9375 -25.890625 "/></g></g></g><g fill="#000000" fill-opacity="1"><g transform="translate(285.160705, 129.997011)"><g><path d="M 14.921875 0.421875 C 12.492188 0.421875 10.296875 -0.125 8.328125 -1.21875 C 6.367188 -2.320312 4.828125 -3.890625 3.703125 -5.921875 C 2.585938 -7.953125 2.03125 -10.304688 2.03125 -12.984375 C 2.03125 -15.628906 2.601562 -17.96875 3.75 -20 C 4.90625 -22.03125 6.472656 -23.585938 8.453125 -24.671875 C 10.441406 -25.765625 12.660156 -26.3125 15.109375 -26.3125 C 17.566406 -26.3125 19.785156 -25.765625 21.765625 -24.671875 C 23.753906 -23.585938 25.320312 -22.035156 26.46875 -20.015625 C 27.625 -18.003906 28.203125 -15.660156 28.203125 -12.984375 C 28.203125 -10.304688 27.609375 -7.953125 26.421875 -5.921875 C 25.242188 -3.890625 23.644531 -2.320312 21.625 -1.21875 C 19.613281 -0.125 17.378906 0.421875 14.921875 0.421875 Z M 14.921875 -3.359375 C 16.460938 -3.359375 17.910156 -3.71875 19.265625 -4.4375 C 20.617188 -5.164062 21.710938 -6.253906 22.546875 -7.703125 C 23.390625 -9.148438 23.8125 -10.910156 23.8125 -12.984375 C 23.8125 -15.066406 23.398438 -16.832031 22.578125 -18.28125 C 21.753906 -19.726562 20.679688 -20.804688 19.359375 -21.515625 C 18.035156 -22.222656 16.601562 -22.578125 15.0625 -22.578125 C 13.488281 -22.578125 12.046875 -22.222656 10.734375 -21.515625 C 9.429688 -20.804688 8.382812 -19.726562 7.59375 -18.28125 C 6.8125 -16.832031 6.421875 -15.066406 6.421875 -12.984375 C 6.421875 -10.878906 6.804688 -9.101562 7.578125 -7.65625 C 8.347656 -6.207031 9.378906 -5.128906 10.671875 -4.421875 C 11.960938 -3.710938 13.378906 -3.359375 14.921875 -3.359375 Z M 14.921875 -3.359375 "/></g></g></g><g fill="#000000" fill-opacity="1"><g transform="translate(321.957602, 129.997011)"><g><path d="M 16.25 -26.359375 C 19.394531 -26.359375 21.941406 -25.40625 23.890625 -23.5 C 25.847656 -21.59375 26.828125 -18.84375 26.828125 -15.25 L 26.828125 0 L 22.578125 0 L 22.578125 -14.640625 C 22.578125 -17.222656 21.929688 -19.195312 20.640625 -20.5625 C 19.347656 -21.9375 17.582031 -22.625 15.34375 -22.625 C 13.082031 -22.625 11.28125 -21.914062 9.9375 -20.5 C 8.601562 -19.082031 7.9375 -17.019531 7.9375 -14.3125 L 7.9375 0 L 3.640625 0 L 3.640625 -25.890625 L 7.9375 -25.890625 L 7.9375 -22.203125 C 8.78125 -23.523438 9.9375 -24.546875 11.40625 -25.265625 C 12.875 -25.992188 14.488281 -26.359375 16.25 -26.359375 Z M 16.25 -26.359375 "/></g></g></g></svg>