<?xml version="1.0" encoding="UTF-8"?>
<svg version="1.1" xmlns="http://www.w3.org/2000/svg" width="900" height="324">
<path d="M0 0 C4.599375 0.061875 9.19875 0.12375 13.9375 0.1875 C13.9375 11.0775 13.9375 21.9675 13.9375 33.1875 C8.9875 33.5175 4.0375 33.8475 -1.0625 34.1875 C-7.04041731 35.87861141 -7.04041731 35.87861141 -11.14111328 40.00419617 C-12.10213087 42.2814087 -12.3546755 43.89401069 -12.44140625 46.35083008 C-12.49155884 47.56909233 -12.49155884 47.56909233 -12.54272461 48.81196594 C-12.56987549 49.68483749 -12.59702637 50.55770905 -12.625 51.45703125 C-12.66181885 52.37022629 -12.6986377 53.28342133 -12.73657227 54.22428894 C-12.85386714 57.14926752 -12.95933466 60.07449134 -13.0625 63 C-14.6036762 105.83245534 -14.6036762 105.83245534 -28.16015625 120.44921875 C-30.0625 122.1875 -30.0625 122.1875 -32.0625 122.1875 C-32.5575 123.6725 -32.5575 123.6725 -33.0625 125.1875 C-33.7225 125.8475 -34.3825 126.5075 -35.0625 127.1875 C-34.56621094 127.50460938 -34.06992187 127.82171875 -33.55859375 128.1484375 C-23.33379016 135.17192687 -17.85109668 145.2473713 -15.4921875 157.26953125 C-14.18363244 166.1558097 -13.8242015 175.02945414 -13.5625 184 C-13.42313677 188.73060752 -13.26206342 193.45902866 -13.0625 198.1875 C-12.98902344 199.97293213 -12.98902344 199.97293213 -12.9140625 201.79443359 C-12.84960938 202.9386377 -12.78515625 204.0828418 -12.71875 205.26171875 C-12.63850586 206.79252075 -12.63850586 206.79252075 -12.55664062 208.35424805 C-11.99507748 211.57408019 -10.96668618 213.54837501 -9.0625 216.1875 C-4.85888416 218.63449535 -0.06795076 218.78888968 4.6875 219.25 C12.8125 220.0625 12.8125 220.0625 13.9375 221.1875 C14.0382812 223.55148468 14.07723215 225.88561311 14.0703125 228.25 C14.07126923 228.95648682 14.07222595 229.66297363 14.07321167 230.39086914 C14.07389333 231.88720793 14.07204005 233.38354967 14.06787109 234.87988281 C14.06252257 237.17780157 14.06781651 239.47552486 14.07421875 241.7734375 C14.07355797 243.22395877 14.0722768 244.67447991 14.0703125 246.125 C14.07233673 246.8166626 14.07436096 247.5083252 14.07644653 248.22094727 C14.05245224 253.07254776 14.05245224 253.07254776 12.9375 254.1875 C-2.03264154 255.31091376 -18.67288608 254.31774156 -32.0625 247.1875 C-32.0625 246.5275 -32.0625 245.8675 -32.0625 245.1875 C-32.619375 244.960625 -33.17625 244.73375 -33.75 244.5 C-36.73348719 242.80666943 -38.72904484 240.69596429 -41.0625 238.1875 C-42.114375 237.07375 -42.114375 237.07375 -43.1875 235.9375 C-48.38942067 228.30801635 -49.11533443 219.11790274 -49.34375 210.1015625 C-49.36166092 209.44681442 -49.37957184 208.79206635 -49.39802551 208.11747742 C-49.4359429 206.72953275 -49.47231599 205.34154513 -49.50723267 203.95352173 C-49.60024844 200.35014902 -49.71366669 196.747401 -49.82421875 193.14453125 C-49.93454769 189.51103682 -50.04452931 185.87759721 -50.13916016 182.24365234 C-50.42482898 171.79721632 -50.82446859 160.17540961 -57.5 151.5625 C-63.96495437 145.57059107 -67.66122638 145.75437894 -77.0625 144.1875 C-77.0625 132.6375 -77.0625 121.0875 -77.0625 109.1875 C-70.6275 108.1975 -70.6275 108.1975 -64.0625 107.1875 C-57.50765064 103.25459038 -53.86010565 97.77611682 -51.75 90.375 C-50.17068756 81.85791363 -50.00607233 73.10543956 -49.81640625 64.46484375 C-49.79970383 63.70537949 -49.7830014 62.94591522 -49.76579285 62.16343689 C-49.69986301 59.02888476 -49.63778389 55.89433628 -49.58569336 52.75952148 C-49.30600611 36.60297727 -48.88755121 22.63785735 -37.3984375 10.23046875 C-33.43059439 6.76026482 -28.98491915 4.94139187 -24.0625 3.1875 C-23.46107178 2.92638428 -22.85964355 2.66526855 -22.23999023 2.39624023 C-14.9556539 -0.5046923 -7.73492766 -0.14751845 0 0 Z " fill="#FFFFFF" transform="translate(87.0625,10.8125)"/>
<path d="M0 0 C1.18271484 -0.020625 2.36542969 -0.04125 3.58398438 -0.0625 C16.43406171 -0.1188909 28.65037558 2.00220857 38.22265625 11.20703125 C39.98104114 13.15954781 41.60330578 15.15463911 43.1875 17.25 C43.950625 18.24 44.71375 19.23 45.5 20.25 C48.99793179 26.46854541 49.53958549 33.1925829 49.875 40.1875 C49.92205078 40.95384766 49.96910156 41.72019531 50.01757812 42.50976562 C50.12085462 44.42122725 50.16000533 46.33594786 50.1875 48.25 C49.1875 49.25 49.1875 49.25 46.68359375 49.34765625 C43.8515625 49.31510417 41.01953125 49.28255208 38.1875 49.25 C37.8575 55.19 37.5275 61.13 37.1875 67.25 C41.4775 67.25 45.7675 67.25 50.1875 67.25 C50.28546875 68.79429687 50.3834375 70.33859375 50.484375 71.9296875 C50.63456889 73.9948535 50.78565842 76.05995449 50.9375 78.125 C51.0303125 79.64480469 51.0303125 79.64480469 51.125 81.1953125 C51.72307257 88.97025589 52.88010544 97.70401772 59 103.1875 C63.97951512 106.4095392 68.62678934 108.21576475 74.421875 109.33203125 C75.31616211 109.50581299 76.21044922 109.67959473 77.13183594 109.85864258 C78.14938965 110.0523645 78.14938965 110.0523645 79.1875 110.25 C79.21215288 114.93139254 79.23033739 119.61274759 79.24243164 124.29418945 C79.24747157 125.88794614 79.2543035 127.48169819 79.26293945 129.07543945 C79.27501999 131.36150253 79.28073155 133.64750467 79.28515625 135.93359375 C79.29031754 136.65026718 79.29547882 137.36694061 79.30079651 138.10533142 C79.30099263 139.82063672 79.24942007 141.53581266 79.1875 143.25 C77.0048135 145.4326865 71.97538715 145.35001631 68.91015625 145.79296875 C63.8489116 146.6779408 61.46600485 148.36348153 58.1875 152.25 C57.48625 153.075 56.785 153.9 56.0625 154.75 C50.0867366 165.90475835 50.71320237 178.76571452 50.625 191.0625 C50.25769984 230.64558534 50.25769984 230.64558534 39.37109375 242.3984375 C35.16347913 245.96625383 30.2430126 248.131559 25.1875 250.25 C23.49947266 251.06984375 23.49947266 251.06984375 21.77734375 251.90625 C15.39283288 254.26516436 8.39277116 253.56269236 1.6875 253.4375 C0.27866014 253.42242613 -1.13019532 253.4087425 -2.5390625 253.39648438 C-5.96394396 253.36129724 -9.38801763 253.31206079 -12.8125 253.25 C-13.92233333 249.9205 -13.94185751 247.40841357 -13.9453125 243.90234375 C-13.94660156 242.65775391 -13.94789062 241.41316406 -13.94921875 240.13085938 C-13.94535156 238.82955078 -13.94148438 237.52824219 -13.9375 236.1875 C-13.94136719 234.88232422 -13.94523437 233.57714844 -13.94921875 232.23242188 C-13.94792969 230.98912109 -13.94664063 229.74582031 -13.9453125 228.46484375 C-13.94418457 227.32136475 -13.94305664 226.17788574 -13.94189453 224.99975586 C-13.8125 222.25 -13.8125 222.25 -12.8125 220.25 C-10.46414852 220.04270542 -8.10670984 219.93536892 -5.75 219.875 C1.44212055 219.56777535 6.9189074 218.5185926 12.1875 213.25 C13.24938528 207.84738775 13.42488194 202.42795625 13.6171875 196.94140625 C13.69092362 195.12302724 13.76515894 193.30466842 13.83984375 191.48632812 C13.95236487 188.66331448 14.06151334 185.84032825 14.16162109 183.0168457 C14.92390069 161.90170098 16.16534764 145.35542213 32.26953125 130.02734375 C33.21892578 129.14755859 33.21892578 129.14755859 34.1875 128.25 C34.8475 127.59 35.5075 126.93 36.1875 126.25 C35.46046875 125.77433594 35.46046875 125.77433594 34.71875 125.2890625 C24.942757 118.48346737 18.50368557 110.02700705 16.1875 98.25 C14.39705711 85.42938336 13.95217677 72.42011884 13.52856445 59.49511719 C13.73906689 47.9087544 13.73906689 47.9087544 10.1875 37.25 C5.26667796 35.34180093 0.55356982 34.93139137 -4.6875 34.6875 C-11.71178058 34.35071942 -11.71178058 34.35071942 -12.8125 33.25 C-12.98460926 30.8883418 -13.09618198 28.55281398 -13.1640625 26.1875 C-13.18721527 25.48101318 -13.21036804 24.77452637 -13.23422241 24.04663086 C-13.28191529 22.55036738 -13.32714281 21.05402362 -13.37011719 19.55761719 C-13.43722363 17.25946452 -13.51495777 14.96184077 -13.59375 12.6640625 C-13.63866267 11.2135614 -13.68295447 9.76304091 -13.7265625 8.3125 C-13.75046051 7.6208374 -13.77435852 6.9291748 -13.79898071 6.21655273 C-13.84278098 4.56160854 -13.83300604 2.90539671 -13.8125 1.25 C-11.16641026 -1.39608974 -3.55209053 0.0149483 0 0 Z M21.1875 19.25 C21.1875 23.54 21.1875 27.83 21.1875 32.25 C25.8075 32.25 30.4275 32.25 35.1875 32.25 C35.1875 27.96 35.1875 23.67 35.1875 19.25 C30.5675 19.25 25.9475 19.25 21.1875 19.25 Z " fill="#4A64D5" transform="translate(123.8125,59.75)"/>
<path d="M0 0 C8.58 0 17.16 0 26 0 C26.49371094 2.63613281 26.98742187 5.27226563 27.49609375 7.98828125 C27.97548927 10.54005273 28.45560503 13.09168771 28.93579102 15.64331055 C29.26922749 17.4172575 29.60191454 19.19134548 29.93383789 20.96557617 C30.41095363 23.51518569 30.8907586 26.06427655 31.37109375 28.61328125 C31.51904892 29.40712723 31.66700409 30.20097321 31.81944275 31.01887512 C32.40051327 34.09096407 33.00995829 37.02987486 34 40 C37.63 26.8 41.26 13.6 45 0 C53.58 0 62.16 0 71 0 C74.63 13.2 78.26 26.4 82 40 C84.32637896 30.05657228 84.32637896 30.05657228 86.3515625 20.078125 C86.56296875 18.95148438 86.774375 17.82484375 86.9921875 16.6640625 C87.42272193 14.34130266 87.85237609 12.01837952 88.28125 9.6953125 C88.49007812 8.58414063 88.69890625 7.47296875 88.9140625 6.328125 C89.0992041 5.3268457 89.2843457 4.32556641 89.47509766 3.29394531 C90 1 90 1 91 0 C92.85369611 -0.08737645 94.71067541 -0.10698153 96.56640625 -0.09765625 C97.69111328 -0.09443359 98.81582031 -0.09121094 99.97460938 -0.08789062 C101.15861328 -0.07951172 102.34261719 -0.07113281 103.5625 -0.0625 C104.75037109 -0.05798828 105.93824219 -0.05347656 107.16210938 -0.04882812 C110.10812226 -0.03699675 113.05403681 -0.02051287 116 0 C113.94870873 9.49303201 111.89713318 18.98600253 109.84520149 28.47889614 C108.89226846 32.88751228 107.93943087 37.296149 106.98681641 41.70483398 C106.06632908 45.96481767 105.14558449 50.22474568 104.2246666 54.48463631 C103.87455079 56.10438141 103.52452541 57.72414606 103.17459488 59.3439312 C102.68190786 61.62444127 102.18889013 63.90487962 101.69580078 66.18530273 C101.55337952 66.8448999 101.41095825 67.50449707 101.26422119 68.18408203 C100.19487241 73.12714503 99.09715853 78.06278663 98 83 C89.42 83 80.84 83 72 83 C66.87576388 67.13139782 62.47001581 51.06224706 58 35 C57.83935562 35.58659897 57.67871124 36.17319794 57.51319885 36.77757263 C55.8464024 42.8613705 54.17494721 48.94387428 52.50073242 55.02563477 C51.87582764 57.29808969 51.25212729 59.57087617 50.62963867 61.84399414 C49.73669889 65.10389919 48.83948956 68.36260252 47.94140625 71.62109375 C47.6622084 72.64400009 47.38301056 73.66690643 47.09535217 74.72080994 C46.83515793 75.66170975 46.57496368 76.60260956 46.30688477 77.57202148 C46.07816177 78.40475082 45.84943878 79.23748016 45.61378479 80.09544373 C45 82 45 82 44 83 C42.14630389 83.08737645 40.28932459 83.10698153 38.43359375 83.09765625 C37.30888672 83.09443359 36.18417969 83.09121094 35.02539062 83.08789062 C33.84138672 83.07951172 32.65738281 83.07113281 31.4375 83.0625 C30.24962891 83.05798828 29.06175781 83.05347656 27.83789062 83.04882812 C24.89187774 83.03699675 21.94596319 83.02051287 19 83 C17.17870053 78.86436058 16.15130622 74.67301914 15.21240234 70.2722168 C15.04629959 69.51070816 14.88019684 68.74919952 14.70906067 67.96461487 C14.16389281 65.46035893 13.6248841 62.95482026 13.0859375 60.44921875 C12.70803145 58.70750323 12.32974029 56.96587123 11.95108032 55.22431946 C10.95757859 50.64998649 9.96930231 46.07453993 8.9821167 41.49884033 C7.97300737 36.82601588 6.95895089 32.15426556 5.9453125 27.48242188 C3.95870303 18.32265628 1.97807196 9.16161308 0 0 Z " fill="#FEFEFE" transform="translate(608,56)"/>
<path d="M0 0 C1.49273437 -0.0309375 1.49273437 -0.0309375 3.015625 -0.0625 C12.95802529 -0.11441854 21.10519292 1.70126294 28.83203125 8.15625 C33.97020257 13.42213877 36.57159088 19.33977265 38.875 26.25 C30.955 27.9 23.035 29.55 14.875 31.25 C13.885 29.27 12.895 27.29 11.875 25.25 C9.46898029 22.34272618 7.41461102 21.41164591 3.60546875 21.01171875 C-2.15525737 20.84358696 -5.70420613 21.15267885 -10.125 25.25 C-15.26107925 33.57399051 -15.10907484 43.77306437 -13.4375 53.1875 C-12.39536878 57.31853815 -10.47665304 59.56867757 -7.125 62.25 C-4.551671 63.5366645 -2.62276962 63.41824551 0.25 63.4375 C1.20648438 63.45167969 2.16296875 63.46585938 3.1484375 63.48046875 C6.07287205 63.23327443 7.52086386 62.99325271 9.875 61.25 C11.65970079 58.40643332 11.65970079 58.40643332 13.125 55.125 C13.64578125 54.02929688 14.1665625 52.93359375 14.703125 51.8046875 C15.28320312 50.54011719 15.28320312 50.54011719 15.875 49.25 C23.97845611 49.74612997 31.28025933 52.570085 38.875 55.25 C37.70903341 65.17286151 34.09148183 71.74076564 26.7421875 78.4609375 C18.56301056 83.56456562 10.44685069 84.92762375 0.9375 84.75 C-0.11646973 84.73573975 -1.17043945 84.72147949 -2.25634766 84.70678711 C-14.03671676 84.38669812 -22.3361279 82.22254519 -30.9296875 73.80859375 C-38.96181969 64.4473009 -41.52497026 54.07936457 -41.5 42 C-41.49838867 41.17733643 -41.49677734 40.35467285 -41.49511719 39.50708008 C-41.30686451 30.04553752 -39.31272463 20.67526955 -33.125 13.25 C-32.65578125 12.67894531 -32.1865625 12.10789062 -31.703125 11.51953125 C-23.12696592 1.94282028 -12.19492168 0.06174644 0 0 Z " fill="#FEFEFE" transform="translate(302.125,54.75)"/>
<path d="M0 0 C7.92 0 15.84 0 24 0 C24.33 8.58 24.66 17.16 25 26 C27.64 24.68 30.28 23.36 33 22 C35.84412899 21.62226412 38.18604946 21.42117116 41 21.5 C41.69915527 21.51281006 42.39831055 21.52562012 43.11865234 21.53881836 C50.69404701 21.83670727 55.17047322 23.80916295 60.3125 29.25 C66.64813282 37.41057053 67.53377265 47.11933694 66.75 57.22265625 C65.36158602 67.02832996 62.61039633 73.16314371 55 79.5546875 C50.48087717 82.82045986 46.79777579 83.41763387 41.25 83.4375 C40.53642334 83.44064209 39.82284668 83.44378418 39.08764648 83.44702148 C32.5523177 83.29854216 28.63633933 81.63633933 24 77 C23.67 78.98 23.34 80.96 23 83 C15.41 83 7.82 83 0 83 C0 55.61 0 28.22 0 0 Z M27.125 40.75 C23.7166409 45.9627845 23.41145137 50.8770292 24 57 C25.05262302 60.78218342 26.54938581 64.90498424 30 67 C33.8433362 67.48915188 36.05634648 67.63760373 39.3125 65.4375 C42.90944916 60.24190676 43.77747269 54.2080016 43 48 C41.87017344 43.61224892 40.90848325 40.6056555 37 38 C32.21440296 37.29102266 30.68593064 37.34389243 27.125 40.75 Z " fill="#FEFEFE" transform="translate(801,56)"/>
<path d="M0 0 C7.92 0 15.84 0 24 0 C24.33 8.58 24.66 17.16 25 26 C27.64 24.68 30.28 23.36 33 22 C35.84412899 21.62226412 38.18604946 21.42117116 41 21.5 C41.69915527 21.51281006 42.39831055 21.52562012 43.11865234 21.53881836 C50.69404701 21.83670727 55.17047322 23.80916295 60.3125 29.25 C66.64813282 37.41057053 67.53377265 47.11933694 66.75 57.22265625 C65.36158602 67.02832996 62.61039633 73.16314371 55 79.5546875 C50.48087717 82.82045986 46.79777579 83.41763387 41.25 83.4375 C40.53642334 83.44064209 39.82284668 83.44378418 39.08764648 83.44702148 C32.5523177 83.29854216 28.63633933 81.63633933 24 77 C23.67 78.98 23.34 80.96 23 83 C15.41 83 7.82 83 0 83 C0 55.61 0 28.22 0 0 Z M27.125 40.75 C23.7166409 45.9627845 23.41145137 50.8770292 24 57 C25.05262302 60.78218342 26.54938581 64.90498424 30 67 C33.8433362 67.48915188 36.05634648 67.63760373 39.3125 65.4375 C42.90944916 60.24190676 43.77747269 54.2080016 43 48 C41.87017344 43.61224892 40.90848325 40.6056555 37 38 C32.21440296 37.29102266 30.68593064 37.34389243 27.125 40.75 Z " fill="#FEFEFE" transform="translate(425,56)"/>
<path d="M0 0 C7.92 0 15.84 0 24 0 C24.03738281 2.63613281 24.07476563 5.27226563 24.11328125 7.98828125 C24.15948646 10.54004234 24.21072366 13.09165614 24.26245117 15.64331055 C24.29571464 17.41730812 24.32374218 19.1914119 24.34643555 20.96557617 C24.37995602 23.51527176 24.43226865 26.06399292 24.48828125 28.61328125 C24.49467117 29.40712723 24.5010611 30.20097321 24.50764465 31.01887512 C24.5975439 35.23771206 24.5975439 35.23771206 26.31323242 39.00073242 C29.20604413 40.71447947 31.74333149 40.34892877 35 40 C37.06733144 38.62177904 37.76396949 37.70045062 38.55053711 35.36621094 C39.17982175 32.05332295 39.23629392 28.7518187 39.31640625 25.390625 C39.33718735 24.66381531 39.35796844 23.93700562 39.37937927 23.18817139 C39.44455512 20.87554009 39.5036104 18.56279907 39.5625 16.25 C39.60571566 14.67837425 39.64933092 13.10675944 39.69335938 11.53515625 C39.80095277 7.6902148 39.90026285 3.84518535 40 0 C47.92 0 55.84 0 64 0 C64 19.8 64 39.6 64 60 C56.41 60 48.82 60 41 60 C40.505 56.535 40.505 56.535 40 53 C39.18595703 53.63228516 39.18595703 53.63228516 38.35546875 54.27734375 C37.64003906 54.82519531 36.92460938 55.37304688 36.1875 55.9375 C35.47980469 56.48277344 34.77210938 57.02804688 34.04296875 57.58984375 C28.22914599 61.60282657 19.77331316 60.48767855 13 60 C8.05645494 58.56074004 4.67025863 55.35153258 2 51 C0.0888399 44.82009865 -0.26923686 39.25264601 -0.1953125 32.8125 C-0.1924826 31.86938965 -0.18965271 30.9262793 -0.18673706 29.95458984 C-0.17562442 26.96959244 -0.15053672 23.98490531 -0.125 21 C-0.11495866 18.96484811 -0.10583484 16.92969148 -0.09765625 14.89453125 C-0.07742374 9.92947446 -0.03825833 4.96508078 0 0 Z " fill="#FEFEFE" transform="translate(501,79)"/>
<path d="M0 0 C1.44741577 0.01812744 1.44741577 0.01812744 2.92407227 0.03662109 C12.33403336 0.29909148 20.53669778 2.00981713 27.5625 8.6640625 C34.9209985 17.67055806 35.0625 26.12297757 35.0625 37.5 C20.2125 37.5 5.3625 37.5 -9.9375 37.5 C-7.75690167 44.34825895 -7.75690167 44.34825895 -3.9375 46.5 C-1.79120543 46.85317961 -1.79120543 46.85317961 0.5 46.8125 C1.26183594 46.82925781 2.02367187 46.84601563 2.80859375 46.86328125 C5.16117994 46.67432704 5.16117994 46.67432704 6.9375 44.99609375 C9.90163047 42.90921513 12.03421849 43.16975907 15.625 43.25 C17.47158203 43.28867188 17.47158203 43.28867188 19.35546875 43.328125 C24.27817665 43.55636435 29.16666356 43.94047584 34.0625 44.5 C32.77227007 48.19095626 31.32763398 50.73625282 28.625 53.5625 C28.02816406 54.21347656 27.43132813 54.86445313 26.81640625 55.53515625 C18.79100566 61.26108036 10.10499206 62.14081845 0.5 62 C-0.55896484 62.01546875 -1.61792969 62.0309375 -2.70898438 62.046875 C-11.04072122 62.00580667 -17.53048375 60.10414597 -24.6875 55.875 C-31.6653368 48.5095056 -34.56796338 40.59669414 -34.9375 30.5 C-34.46028359 20.92075348 -31.71921833 13.85760794 -24.75 7.25 C-17.25973042 1.43459964 -9.30932193 -0.18714658 0 0 Z M-6.9375 16.625 C-9.42048106 19.75646527 -9.42048106 19.75646527 -9.9375 25.5 C-3.0075 25.5 3.9225 25.5 11.0625 25.5 C9.18805779 16.80697031 9.18805779 16.80697031 5.0625 14.5 C0.3230979 13.65684794 -2.97102522 13.8154137 -6.9375 16.625 Z " fill="#FEFEFE" transform="translate(757.9375,77.5)"/>
<path d="M0 0 C1.44741577 0.01812744 1.44741577 0.01812744 2.92407227 0.03662109 C12.33403336 0.29909148 20.53669778 2.00981713 27.5625 8.6640625 C34.9209985 17.67055806 35.0625 26.12297757 35.0625 37.5 C20.2125 37.5 5.3625 37.5 -9.9375 37.5 C-7.75690167 44.34825895 -7.75690167 44.34825895 -3.9375 46.5 C-1.79120543 46.85317961 -1.79120543 46.85317961 0.5 46.8125 C1.26183594 46.82925781 2.02367187 46.84601563 2.80859375 46.86328125 C5.16117994 46.67432704 5.16117994 46.67432704 6.9375 44.99609375 C9.90163047 42.90921513 12.03421849 43.16975907 15.625 43.25 C17.47158203 43.28867188 17.47158203 43.28867188 19.35546875 43.328125 C24.27817665 43.55636435 29.16666356 43.94047584 34.0625 44.5 C32.77227007 48.19095626 31.32763398 50.73625282 28.625 53.5625 C28.02816406 54.21347656 27.43132812 54.86445313 26.81640625 55.53515625 C18.79100566 61.26108036 10.10499206 62.14081845 0.5 62 C-0.55896484 62.01546875 -1.61792969 62.0309375 -2.70898438 62.046875 C-11.04072122 62.00580667 -17.53048375 60.10414597 -24.6875 55.875 C-31.6653368 48.5095056 -34.56796338 40.59669414 -34.9375 30.5 C-34.46028359 20.92075348 -31.71921833 13.85760794 -24.75 7.25 C-17.25973042 1.43459964 -9.30932193 -0.18714658 0 0 Z M-6.9375 16.625 C-9.42048106 19.75646527 -9.42048106 19.75646527 -9.9375 25.5 C-3.0075 25.5 3.9225 25.5 11.0625 25.5 C9.18805779 16.80697031 9.18805779 16.80697031 5.0625 14.5 C0.3230979 13.65684794 -2.97102522 13.8154137 -6.9375 16.625 Z " fill="#FEFEFE" transform="translate(382.9375,77.5)"/>
<path d="M0 0 C19.8 0 39.6 0 60 0 C60 3.63 60 7.26 60 11 C43.83 11 27.66 11 11 11 C11 18.59 11 26.18 11 34 C25.85 34 40.7 34 56 34 C56 37.63 56 41.26 56 45 C41.15 45 26.3 45 11 45 C11 53.91 11 62.82 11 72 C27.5 72 44 72 61 72 C61 75.63 61 79.26 61 83 C40.87 83 20.74 83 0 83 C0 55.61 0 28.22 0 0 Z " fill="#FEFEFE" transform="translate(393,176)"/>
<path d="M0 0 C6.81325159 3.10175267 10.95116537 8.47147348 13.8828125 15.2265625 C17.5405704 26.38426098 16.78594162 38.88693845 11.5078125 49.3515625 C8.25870231 55.61770359 3.68497233 58.93226987 -2.91796875 61.17578125 C-8.66859782 62.57990063 -13.97544322 62.70564633 -19.4921875 60.3515625 C-21.1421875 59.0315625 -22.7921875 57.7115625 -24.4921875 56.3515625 C-24.8221875 65.2615625 -25.1521875 74.1715625 -25.4921875 83.3515625 C-29.1221875 83.3515625 -32.7521875 83.3515625 -36.4921875 83.3515625 C-36.4921875 55.9615625 -36.4921875 28.5715625 -36.4921875 0.3515625 C-33.1921875 0.3515625 -29.8921875 0.3515625 -26.4921875 0.3515625 C-26.1621875 2.3315625 -25.8321875 4.3115625 -25.4921875 6.3515625 C-25.01007812 5.93003906 -24.52796875 5.50851563 -24.03125 5.07421875 C-23.39960937 4.52636719 -22.76796875 3.97851562 -22.1171875 3.4140625 C-21.17746094 2.59615234 -21.17746094 2.59615234 -20.21875 1.76171875 C-15.01942267 -2.48479067 -6.19649073 -1.61225307 0 0 Z M-24.65234375 19.2109375 C-27.61098819 25.87132778 -27.57039048 33.86471919 -25.3046875 40.7265625 C-23.72839682 44.36473104 -21.56433727 46.81703894 -18.4921875 49.3515625 C-13.12268045 51.14139818 -8.29483417 51.23587974 -3.1796875 48.7265625 C1.41679527 44.66455447 4.30596256 40.44141933 4.7109375 34.2421875 C4.95777611 23.64972156 4.95777611 23.64972156 0.1015625 14.60546875 C-3.10046479 11.3354739 -5.83954247 9.89215058 -10.4296875 9.5390625 C-17.0387615 9.97227924 -21.23142699 13.7282561 -24.65234375 19.2109375 Z " fill="#FEFEFE" transform="translate(560.4921875,197.6484375)"/>
<path d="M0 0 C0 6.93 0 13.86 0 21 C3.3 21 6.6 21 10 21 C10 24.63 10 28.26 10 32 C6.7 32 3.4 32 0 32 C0.33 44.21 0.66 56.42 1 69 C3.97 69.99 6.94 70.98 10 72 C11.1577506 75.47325181 11.06866652 78.36067448 11 82 C4.93065045 83.1035181 -0.14517262 83.16674714 -6 81 C-8.9576473 78.70782334 -9.81597278 77.55208165 -11 74 C-11.08589303 72.60344541 -11.11772715 71.20314223 -11.11352539 69.80395508 C-11.11344986 68.96331009 -11.11337433 68.1226651 -11.11329651 67.25654602 C-11.10813522 66.35333115 -11.10297394 65.45011627 -11.09765625 64.51953125 C-11.0962413 63.59154221 -11.09482635 62.66355316 -11.09336853 61.70744324 C-11.08776937 58.74242942 -11.07521704 55.77749101 -11.0625 52.8125 C-11.05748489 50.80273547 -11.052922 48.79296975 -11.04882812 46.78320312 C-11.03780021 41.85543968 -11.02053617 36.92773263 -11 32 C-12.8871875 31.9690625 -12.8871875 31.9690625 -14.8125 31.9375 C-15.52019531 31.92589844 -16.22789062 31.91429687 -16.95703125 31.90234375 C-19.20305461 31.91736783 -19.20305461 31.91736783 -22 33 C-22.66 32.67 -23.32 32.34 -24 32 C-29.51855368 31.43387253 -29.51855368 31.43387253 -34.375 33.5625 C-38.19529796 39.29294694 -38.31975107 45.54475647 -38.4140625 52.21484375 C-38.43342865 53.07058487 -38.4527948 53.92632599 -38.4727478 54.80799866 C-38.53210914 57.51773383 -38.57875366 60.2275125 -38.625 62.9375 C-38.66321985 64.78452284 -38.70227387 66.63152861 -38.7421875 68.47851562 C-38.83777448 72.98553709 -38.92196424 77.49264188 -39 82 C-42.63 82 -46.26 82 -50 82 C-50 61.87 -50 41.74 -50 21 C-46.7 21 -43.4 21 -40 21 C-39.67 22.32 -39.34 23.64 -39 25 C-38.2575 24.175 -37.515 23.35 -36.75 22.5 C-31.44498139 18.07080994 -24.43913904 19.72236117 -18 20.2421875 C-15.66327949 20.46125505 -13.33089153 20.72577747 -11 21 C-11 15.72 -11 10.44 -11 5 C-2.25 0 -2.25 0 0 0 Z " fill="#FEFEFE" transform="translate(701,177)"/>
<path d="M0 0 C6.07475403 3.89933536 11.08672164 9.52132225 13.4375 16.375 C14.4375 21.5625 14.4375 21.5625 14.4375 33.5625 C-0.0825 33.5625 -14.6025 33.5625 -29.5625 33.5625 C-26.16208399 41.8313987 -26.16208399 41.8313987 -20.5625 47.5625 C-15.34996844 49.30001052 -8.71574508 49.77574858 -3.51171875 47.7734375 C-0.83078037 46.03049493 0.66065798 44.22776302 2.4375 41.5625 C5.2578125 41.26953125 5.2578125 41.26953125 8.5625 41.375 C10.20605469 41.41560547 10.20605469 41.41560547 11.8828125 41.45703125 C13.14738281 41.50923828 13.14738281 41.50923828 14.4375 41.5625 C13.23660478 48.54417515 9.61839913 52.9270988 4.21875 57.30859375 C-2.29947612 61.89708187 -10.94086059 61.95997748 -18.5625 61 C-25.69963133 59.61071108 -31.00791863 56.97938732 -35.4140625 51.0859375 C-41.82265219 40.78967255 -42.13322635 28.91762871 -39.9140625 17.11328125 C-37.8793827 10.87881367 -34.76456717 6.53420274 -29.5625 2.5625 C-29.02367187 2.129375 -28.48484375 1.69625 -27.9296875 1.25 C-20.76548457 -3.37621176 -7.73742888 -3.33801604 0 0 Z M-26.9375 16.0625 C-28.92582557 18.62450989 -28.92582557 18.62450989 -28.5625 22.5625 C-18.3325 22.5625 -8.1025 22.5625 2.4375 22.5625 C1.48562889 16.85127334 1.21628972 15.44925514 -2.5625 11.5625 C-11.06574394 6.19400603 -20.56419092 9.3537536 -26.9375 16.0625 Z " fill="#FEFEFE" transform="translate(624.5625,198.4375)"/>
<path d="M0 0 C4.69923292 -1.04960969 9.44931552 -1.91243659 14 0 C18.8305463 4.53548912 22.34298577 10.96941779 25 17 C25 17.66 25 18.32 25 19 C27.64121467 16.68146767 29.43321884 14.3923798 31.0859375 11.328125 C35.72628795 2.91659822 35.72628795 2.91659822 39 0 C43.90364047 -1.27677776 48.05691013 -0.96155206 53 0 C50.7500543 4.18091176 48.3091417 8.04391503 45.51171875 11.8828125 C44.88845703 12.74003906 44.26519531 13.59726563 43.62304688 14.48046875 C42.32212922 16.25790821 41.01205594 18.02867933 39.69335938 19.79296875 C39.07654297 20.64761719 38.45972656 21.50226563 37.82421875 22.3828125 C37.25791748 23.14996582 36.69161621 23.91711914 36.1081543 24.70751953 C34.6764912 27.66925482 34.93636576 28.9189209 36 32 C37.30036077 34.34714793 37.30036077 34.34714793 38.984375 36.6171875 C39.59023438 37.47183594 40.19609375 38.32648438 40.8203125 39.20703125 C41.45710938 40.08746094 42.09390625 40.96789062 42.75 41.875 C43.37132812 42.74769531 43.99265625 43.62039062 44.6328125 44.51953125 C46.92484752 47.73515 49.22127126 50.94634026 51.56835938 54.12207031 C55 58.79520011 55 58.79520011 55 61 C50.49914951 61.67924421 46.48007537 61.9063141 42 61 C38.38621112 57.89237699 36.31993256 54.12319891 34 50 C32.67423848 47.93262475 31.34127962 45.86984125 30 43.8125 C28.99631486 42.21063645 27.99487733 40.60734868 27 39 C26.5153125 39.66644531 26.030625 40.33289063 25.53125 41.01953125 C24.11912119 42.96120837 22.69503166 44.89422011 21.26171875 46.8203125 C18.97212576 49.9382955 18.97212576 49.9382955 17.14453125 53.1796875 C15.27947456 56.24172087 13.70592971 58.63846135 11 61 C6.5204371 61.90725325 2.5004327 61.67918115 -2 61 C-0.74239131 57.56747246 0.6871624 54.78825571 2.86328125 51.85546875 C3.42080078 51.09556641 3.97832031 50.33566406 4.55273438 49.55273438 C5.13345703 48.77220703 5.71417969 47.99167969 6.3125 47.1875 C9.60760189 42.73556732 12.89657597 38.27763578 15.98046875 33.67578125 C16.39578857 33.06259033 16.8111084 32.44939941 17.23901367 31.81762695 C18.2386956 29.42987208 17.92286328 28.39089516 17 26 C15.98634168 24.1831532 15.98634168 24.1831532 14.70703125 22.42578125 C14.24401611 21.76199463 13.78100098 21.09820801 13.30395508 20.41430664 C12.8117749 19.72071045 12.31959473 19.02711426 11.8125 18.3125 C10.81211326 16.88047843 9.81211083 15.4481883 8.8125 14.015625 C8.32910156 13.32662109 7.84570312 12.63761719 7.34765625 11.92773438 C5.64334138 9.4898231 3.96983199 7.0325621 2.3125 4.5625 C1.62607422 3.54349609 1.62607422 3.54349609 0.92578125 2.50390625 C0 1 0 1 0 0 Z " fill="#FEFEFE" transform="translate(462,198)"/>
<path d="M0 0 C10.56 0 21.12 0 32 0 C32 10.56 32 21.12 32 32 C26.905625 32.020625 21.81125 32.04125 16.5625 32.0625 C14.95318604 32.071604 13.34387207 32.08070801 11.68579102 32.09008789 C10.42951904 32.09258545 9.17324707 32.09508301 7.87890625 32.09765625 C5.93866577 32.10551147 5.93866577 32.10551147 3.95922852 32.11352539 C1 32 1 32 0 31 C-0.08790975 28.70848583 -0.10694038 26.41427476 -0.09765625 24.12109375 C-0.09515869 22.86482178 -0.09266113 21.6085498 -0.09008789 20.31420898 C-0.08098389 18.70489502 -0.07187988 17.09558105 -0.0625 15.4375 C-0.041875 10.343125 -0.02125 5.24875 0 0 Z " fill="#4C66D9" transform="translate(139,26)"/>
<path d="M0 0 C0.91644287 0.00523682 1.83288574 0.01047363 2.77709961 0.01586914 C3.76645508 0.0190918 4.75581055 0.02231445 5.77514648 0.02563477 C6.81606445 0.03401367 7.85698242 0.04239258 8.92944336 0.05102539 C10.49662109 0.05779297 10.49662109 0.05779297 12.09545898 0.06469727 C14.68600996 0.07652627 17.27644895 0.0930085 19.86694336 0.11352539 C19.89581572 3.92600965 19.91369828 7.73846609 19.92944336 11.55102539 C19.93782227 12.63963867 19.94620117 13.72825195 19.95483398 14.84985352 C19.95966797 16.4015625 19.95966797 16.4015625 19.96459961 17.98461914 C19.97245483 19.42212524 19.97245483 19.42212524 19.98046875 20.88867188 C19.86694336 23.11352539 19.86694336 23.11352539 18.86694336 24.11352539 C17.31738777 24.21252062 15.76340663 24.24432063 14.21069336 24.24633789 C12.80110352 24.24827148 12.80110352 24.24827148 11.36303711 24.25024414 C10.37432617 24.24637695 9.38561523 24.24250977 8.36694336 24.23852539 C7.37823242 24.24239258 6.38952148 24.24625977 5.37084961 24.25024414 C4.43112305 24.24895508 3.49139648 24.24766602 2.52319336 24.24633789 C1.65500977 24.24520996 0.78682617 24.24408203 -0.10766602 24.24291992 C-2.13305664 24.11352539 -2.13305664 24.11352539 -3.13305664 23.11352539 C-3.23222234 21.49094995 -3.26385441 19.86412708 -3.26586914 18.23852539 C-3.2671582 17.25368164 -3.26844727 16.26883789 -3.26977539 15.25415039 C-3.2659082 14.21774414 -3.26204102 13.18133789 -3.25805664 12.11352539 C-3.26385742 10.55891602 -3.26385742 10.55891602 -3.26977539 8.97290039 C-3.26848633 7.98805664 -3.26719727 7.00321289 -3.26586914 5.98852539 C-3.26474121 5.07844727 -3.26361328 4.16836914 -3.26245117 3.23071289 C-3.08674949 0.35583559 -2.87769607 0.15315654 0 0 Z " fill="#4C66D9" transform="translate(189.133056640625,54.886474609375)"/>
<path d="M0 0 C0.74572266 -0.00386719 1.49144531 -0.00773437 2.25976562 -0.01171875 C7.81086499 -0.00163501 7.81086499 -0.00163501 8.9375 1.125 C9.01080331 3.98969325 9.02967831 6.82393674 9 9.6875 C8.979375 12.471875 8.95875 15.25625 8.9375 18.125 C2.6675 18.125 -3.6025 18.125 -10.0625 18.125 C-10.0625 12.515 -10.0625 6.905 -10.0625 1.125 C-6.88856311 -0.46196844 -3.48075795 -0.0181447 0 0 Z " fill="#3A4EA6" transform="translate(196.0625,100.875)"/>
<path d="M0 0 C5.61 0 11.22 0 17 0 C17 5.94 17 11.88 17 18 C11.39 18 5.78 18 0 18 C0 12.06 0 6.12 0 0 Z " fill="#4C66D9" transform="translate(231,20)"/>
<path d="M0 0 C0.66 0 1.32 0 2 0 C2 9.9 2 19.8 2 30 C11.24 30 20.48 30 30 30 C30 20.1 30 10.2 30 0 C30.66 0 31.32 0 32 0 C32 10.56 32 21.12 32 32 C26.905625 32.020625 21.81125 32.04125 16.5625 32.0625 C14.95318604 32.071604 13.34387207 32.08070801 11.68579102 32.09008789 C10.42951904 32.09258545 9.17324707 32.09508301 7.87890625 32.09765625 C5.93866577 32.10551147 5.93866577 32.10551147 3.95922852 32.11352539 C1 32 1 32 0 31 C-0.08790975 28.70848583 -0.10694038 26.41427476 -0.09765625 24.12109375 C-0.0962413 23.4344313 -0.09482635 22.74776886 -0.09336853 22.04029846 C-0.08775479 19.83932199 -0.07520007 17.63844591 -0.0625 15.4375 C-0.05748676 13.94856917 -0.05292355 12.45963676 -0.04882812 10.97070312 C-0.03778093 7.31376925 -0.02050713 3.65689442 0 0 Z " fill="#2C3B7F" transform="translate(139,26)"/>
<path d="M0 0 C3.63 0 7.26 0 11 0 C11 3.3 11 6.6 11 10 C7.37 10 3.74 10 0 10 C0 6.7 0 3.4 0 0 Z " fill="#4C66D8" transform="translate(190,105)"/>
<path d="M0 0 C0.99 0 1.98 0 3 0 C3 7.92 3 15.84 3 24 C1.68 23.67 0.36 23.34 -1 23 C-1.02887512 19.35418313 -1.04675585 15.70839537 -1.0625 12.0625 C-1.07087891 11.02158203 -1.07925781 9.98066406 -1.08789062 8.90820312 C-1.09272461 7.42416992 -1.09272461 7.42416992 -1.09765625 5.91015625 C-1.10289307 4.99371338 -1.10812988 4.07727051 -1.11352539 3.13305664 C-1 1 -1 1 0 0 Z " fill="#374A9F" transform="translate(187,55)"/>
<path d="M0 0 C0.99 0 1.98 0 3 0 C3.19335938 1.24136719 3.38671875 2.48273438 3.5859375 3.76171875 C3.84865364 5.40369461 4.11169141 7.04561904 4.375 8.6875 C4.56449219 9.91243164 4.56449219 9.91243164 4.7578125 11.16210938 C5.73949319 17.26804283 5.73949319 17.26804283 8 23 C8.66 23.33 9.32 23.66 10 24 C10.625 26.5625 10.625 26.5625 11 29 C3.3633559 22.42400091 1.16829951 13.76144986 0 4 C0 2.68 0 1.36 0 0 Z " fill="#2D3C80" transform="translate(139,147)"/>
<path d="M0 0 C0.33 0.99 0.66 1.98 1 3 C0.0390625 4.90234375 0.0390625 4.90234375 -1.375 6.9375 C-4.98971911 12.17783302 -5.22457784 16.97905102 -5.5625 23.25 C-5.60568359 23.99507812 -5.64886719 24.74015625 -5.69335938 25.5078125 C-5.79896725 27.338349 -5.89994201 29.16915176 -6 31 C-6.99 31.33 -7.98 31.66 -9 32 C-8.45094284 20.09113952 -7.12233906 9.82488669 0 0 Z " fill="#324390" transform="translate(148,198)"/>
<path d="M0 0 C1.48831242 0.00667405 2.97660807 0.01863442 4.46484375 0.03515625 C5.22345703 0.03966797 5.98207031 0.04417969 6.76367188 0.04882812 C8.64326246 0.06064945 10.52281274 0.07858547 12.40234375 0.09765625 C12.40234375 0.42765625 12.40234375 0.75765625 12.40234375 1.09765625 C7.78234375 1.42765625 3.16234375 1.75765625 -1.59765625 2.09765625 C-1.59765625 12.65765625 -1.59765625 23.21765625 -1.59765625 34.09765625 C-2.25765625 33.76765625 -2.91765625 33.43765625 -3.59765625 33.09765625 C-3.76491611 28.55888364 -3.92551078 24.01994381 -4.07983398 19.48071289 C-4.13332245 17.93540035 -4.18865693 16.39015058 -4.24584961 14.8449707 C-4.32757058 12.62855574 -4.40272795 10.41200241 -4.4765625 8.1953125 C-4.50359756 7.50051285 -4.53063263 6.8057132 -4.55848694 6.08985901 C-4.61066733 4.42655849 -4.60950732 2.76173286 -4.59765625 1.09765625 C-3.59765625 0.09765625 -3.59765625 0.09765625 0 0 Z " fill="#344593" transform="translate(114.59765625,59.90234375)"/>
<path d="M0 0 C6.14161557 -0.50135637 9.10285091 0.51549007 14 4 C16.68999919 7.38419253 17.36805901 9.70597827 17 14 C16.34 14 15.68 14 15 14 C14.92265625 13.38511719 14.8453125 12.77023438 14.765625 12.13671875 C14.1745414 9.32907165 13.59678866 7.40157014 12 5 C8.10283007 3.28206387 4.20672756 2.56741907 0 2 C0 1.34 0 0.68 0 0 Z " fill="#35489A" transform="translate(122,92)"/>
<path d="M0 0 C1.99512373 3.99024747 2.28727578 5.69086333 2 10 C1 11 1 11 -1.3984375 11.0625 C-3.37760646 11.02094265 -5.35677315 10.97927656 -7.3359375 10.9375 C-10.10556013 10.87191426 -10.10556013 10.87191426 -13 12 C-13 11.01 -13 10.02 -13 9 C-8.71 9 -4.42 9 0 9 C0 6.03 0 3.06 0 0 Z " fill="#2C3B7D" transform="translate(172,98)"/>
<path d="M0 0 C3.82645947 2.67852163 4.46819646 5.34810616 5.25 9.75 C5.51536311 11.49773637 5.77032494 13.24721668 6 15 C5.01 15 4.02 15 3 15 C2.86722656 14.25234375 2.73445312 13.5046875 2.59765625 12.734375 C2.42105469 11.74953125 2.24445313 10.7646875 2.0625 9.75 C1.88847656 8.77546875 1.71445313 7.8009375 1.53515625 6.796875 C1.09620271 4.50278205 0.59651408 2.25708029 0 0 Z " fill="#2C3C80" transform="translate(167,79)"/>
<path d="M0 0 C0.66 0.33 1.32 0.66 2 1 C-1.43927719 6.47157735 -6.3047663 8.44583985 -12 11 C-12 10.01 -12 9.02 -12 8 C-11.20335937 7.63648438 -11.20335937 7.63648438 -10.390625 7.265625 C-6.26007376 5.30587441 -3.02889453 3.53371028 0 0 Z " fill="#36489A" transform="translate(163,298)"/>
<path d="M0 0 C0.33 0.66 0.66 1.32 1 2 C5.29 2 9.58 2 14 2 C14 2.66 14 3.32 14 4 C9.05 4 4.1 4 -1 4 C-0.67 2.68 -0.34 1.36 0 0 Z " fill="#2A3877" transform="translate(160,125)"/>
<path d="M0 0 C0.99 0 1.98 0 3 0 C3.33 4.62 3.66 9.24 4 14 C3.67 14 3.34 14 3 14 C3 12.35 3 10.7 3 9 C2.34 9 1.68 9 1 9 C0.67 6.03 0.34 3.06 0 0 Z " fill="#3B4FA9" transform="translate(139,147)"/>
<path d="M0 0 C0.33 0.66 0.66 1.32 1 2 C-3.18461538 6.92307692 -3.18461538 6.92307692 -7.3125 7.3125 C-8.199375 7.209375 -9.08625 7.10625 -10 7 C-8.39161707 3.78323414 -5.21406721 3.35329146 -2 2 C-1.34 1.34 -0.68 0.68 0 0 Z " fill="#37499C" transform="translate(136,273)"/>
</svg>
